<svg id="svg" version="1.1" xmlns="http://www.w3.org/2000/svg" xmlns:xlink="http://www.w3.org/1999/xlink" width="400" height="400" viewBox="0, 0, 400,400"><g id="svgg"><path id="path0" d="M293.800 182.577 C 277.916 185.191,265.076 192.817,257.726 204.000 C 255.120 207.965,252.919 212.580,251.812 216.400 C 246.303 235.409,251.256 255.765,264.618 269.027 C 267.857 272.242,276.434 278.800,277.400 278.800 C 277.541 278.800,278.408 279.313,279.328 279.941 C 281.282 281.273,295.044 288.000,295.816 288.000 C 295.995 288.000,297.345 288.580,301.400 290.399 C 302.280 290.794,303.720 291.425,304.600 291.801 C 324.726 300.413,330.670 305.591,331.482 315.217 C 332.500 327.307,322.185 335.321,305.600 335.324 C 290.707 335.327,280.250 329.708,271.325 316.907 C 269.903 314.868,268.636 313.200,268.509 313.200 C 268.203 313.200,263.732 315.680,260.107 317.860 C 258.516 318.817,257.139 319.600,257.048 319.600 C 256.956 319.600,255.669 320.337,254.188 321.237 C 252.706 322.137,250.887 323.217,250.147 323.637 C 249.406 324.057,248.125 324.788,247.300 325.263 C 246.475 325.737,245.440 326.327,245.000 326.574 C 238.146 330.414,238.396 330.122,239.813 332.660 C 244.993 341.939,252.194 349.679,261.431 355.899 C 263.590 357.353,264.435 357.865,267.445 359.546 C 268.590 360.185,273.171 362.221,275.200 362.992 C 276.834 363.612,278.333 364.108,281.800 365.176 C 296.710 369.765,322.673 368.994,335.500 363.580 C 335.995 363.371,336.805 363.042,337.300 362.849 C 357.113 355.121,368.400 338.148,368.400 316.081 C 368.400 293.037,359.548 279.125,336.600 266.103 C 333.007 264.064,323.845 259.630,318.800 257.489 C 316.104 256.345,314.585 255.686,312.704 254.847 C 311.662 254.381,310.713 254.000,310.595 254.000 C 309.880 254.000,297.706 247.824,295.311 246.246 C 279.051 235.532,285.436 214.000,304.873 214.000 C 307.987 214.000,308.914 214.158,313.491 215.470 C 318.236 216.829,324.345 222.296,327.495 228.000 C 328.633 230.061,328.983 229.968,334.951 226.018 C 337.957 224.028,340.498 222.400,340.596 222.400 C 340.694 222.400,341.816 221.698,343.087 220.840 C 347.109 218.128,356.033 212.400,356.238 212.400 C 361.770 212.400,343.290 192.112,333.900 187.877 C 333.075 187.504,331.815 186.939,331.100 186.620 C 322.470 182.771,304.472 180.820,293.800 182.577 M180.799 246.700 C 180.798 320.575,180.802 320.487,177.409 327.182 C 172.390 337.088,154.144 338.270,145.021 329.280 C 142.977 327.267,137.215 319.342,137.191 318.513 C 137.186 318.341,136.845 317.761,136.432 317.224 L 135.683 316.249 131.596 318.724 C 129.349 320.086,127.350 321.200,127.155 321.200 C 126.960 321.200,126.800 321.359,126.800 321.553 C 126.800 321.748,126.485 322.007,126.100 322.129 C 125.415 322.346,123.196 323.604,122.800 324.000 C 122.690 324.110,122.150 324.462,121.600 324.782 C 115.900 328.102,106.173 334.133,106.073 334.411 C 105.841 335.053,107.242 337.729,110.360 342.600 C 116.860 352.756,127.693 361.020,139.682 364.967 C 150.493 368.527,164.779 369.238,177.119 366.830 C 197.503 362.852,210.921 349.949,215.627 329.800 C 217.405 322.187,217.336 325.054,217.487 252.500 L 217.630 184.000 199.215 184.000 L 180.800 184.000 180.799 246.700 " stroke="none" fill="#050504" fill-rule="evenodd"></path><path id="path1" d="M0.000 200.000 L 0.000 400.000 200.000 400.000 L 400.000 400.000 400.000 200.000 L 400.000 0.000 200.000 0.000 L 0.000 0.000 0.000 200.000 M315.020 181.791 C 323.636 182.929,335.542 186.822,337.600 189.173 C 337.710 189.298,338.295 189.656,338.900 189.968 C 339.505 190.280,340.000 190.685,340.000 190.868 C 340.000 191.050,340.225 191.201,340.500 191.202 C 340.775 191.203,341.540 191.699,342.200 192.304 C 342.860 192.909,344.327 194.169,345.460 195.105 C 348.784 197.851,356.400 207.370,356.400 208.778 C 356.400 209.010,356.558 209.200,356.751 209.200 C 357.234 209.200,358.133 211.461,357.840 211.936 C 357.709 212.147,355.397 213.719,352.701 215.430 C 350.005 217.140,346.039 219.678,343.886 221.070 C 341.734 222.461,339.881 223.600,339.769 223.600 C 339.658 223.600,339.180 223.960,338.708 224.400 C 338.236 224.840,337.613 225.200,337.325 225.200 C 337.036 225.200,336.800 225.380,336.800 225.600 C 336.800 225.820,336.615 226.000,336.390 226.000 C 336.164 226.000,334.500 226.990,332.693 228.200 C 330.886 229.410,329.136 230.398,328.804 230.395 C 328.207 230.390,326.400 227.992,326.400 227.206 C 326.400 226.983,326.259 226.800,326.086 226.800 C 325.914 226.800,325.452 226.257,325.060 225.593 C 320.458 217.804,309.841 213.343,300.215 215.155 C 284.561 218.102,281.844 236.990,295.800 245.838 C 297.908 247.175,307.299 252.000,307.791 252.000 C 307.893 252.000,309.017 252.469,310.288 253.043 C 311.560 253.617,313.230 254.356,314.000 254.685 C 314.770 255.014,316.120 255.606,317.000 256.000 C 317.880 256.394,319.320 257.025,320.200 257.401 C 348.586 269.547,362.365 281.919,367.198 299.600 C 371.737 316.207,367.921 338.712,359.019 347.829 C 358.789 348.065,357.880 349.121,357.000 350.176 C 355.661 351.781,353.602 353.651,350.000 356.532 C 346.118 359.636,339.832 362.857,333.524 364.972 C 305.231 374.461,270.455 367.460,251.203 348.400 C 246.909 344.149,246.168 343.319,244.414 340.800 C 243.877 340.030,243.328 339.310,243.193 339.200 C 242.682 338.784,240.400 335.239,240.400 334.861 C 240.400 334.644,240.265 334.407,240.100 334.333 C 239.704 334.157,238.000 330.854,238.000 330.262 C 238.000 330.007,238.855 329.353,239.900 328.809 C 240.945 328.265,241.890 327.725,242.000 327.610 C 242.110 327.494,242.630 327.158,243.155 326.862 C 243.680 326.567,244.715 325.982,245.455 325.562 C 246.195 325.143,247.475 324.421,248.300 323.957 C 249.125 323.494,249.980 322.973,250.200 322.800 C 250.420 322.627,251.275 322.106,252.100 321.643 C 252.925 321.179,254.230 320.440,255.000 320.000 C 255.770 319.560,256.985 318.866,257.700 318.458 C 258.415 318.049,260.410 316.879,262.133 315.858 C 263.856 314.836,265.386 313.996,265.533 313.991 C 265.680 313.986,266.250 313.630,266.800 313.200 C 268.407 311.943,268.965 312.222,271.000 315.300 C 281.336 330.929,297.083 337.743,314.200 333.994 C 332.949 329.888,336.991 310.936,321.266 300.871 C 318.193 298.904,306.979 293.336,303.400 292.000 C 302.960 291.836,301.790 291.337,300.800 290.891 C 296.643 289.021,295.197 288.400,294.996 288.400 C 294.672 288.400,288.282 285.394,283.800 283.133 C 279.454 280.941,275.079 278.378,274.867 277.900 C 274.793 277.735,274.512 277.600,274.242 277.600 C 273.972 277.600,273.402 277.280,272.975 276.889 C 272.549 276.498,271.570 275.736,270.800 275.196 C 262.093 269.089,254.159 258.287,251.413 248.800 C 248.031 237.116,248.537 221.228,252.578 212.200 C 254.686 207.492,256.257 204.642,258.000 202.364 C 261.537 197.743,265.838 193.530,268.900 191.689 C 269.505 191.325,270.000 190.886,270.000 190.714 C 270.000 190.541,270.193 190.400,270.428 190.400 C 270.663 190.400,271.608 189.892,272.528 189.272 C 281.966 182.903,299.746 179.772,315.020 181.791 M217.919 251.000 C 218.003 299.136,217.908 319.694,217.589 322.400 C 215.316 341.648,205.900 355.947,190.800 363.080 C 172.002 371.961,142.737 370.516,127.328 359.947 C 126.408 359.316,125.463 358.800,125.228 358.800 C 124.993 358.800,124.800 358.659,124.800 358.486 C 124.800 358.314,124.267 357.857,123.615 357.472 C 122.963 357.087,122.198 356.552,121.915 356.284 C 121.632 356.016,120.473 355.031,119.340 354.095 C 116.017 351.349,108.400 341.830,108.400 340.422 C 108.400 340.190,108.241 340.000,108.047 340.000 C 107.852 340.000,107.590 339.685,107.464 339.300 C 107.338 338.915,106.777 337.830,106.218 336.889 C 104.489 333.984,104.063 334.414,114.975 328.053 C 115.869 327.532,117.078 326.767,117.662 326.353 C 118.246 325.939,118.921 325.600,119.162 325.600 C 119.403 325.600,119.600 325.420,119.600 325.200 C 119.600 324.980,119.793 324.800,120.028 324.800 C 120.263 324.800,121.241 324.260,122.200 323.600 C 123.159 322.940,124.064 322.400,124.210 322.400 C 124.357 322.400,124.954 322.061,125.538 321.647 C 126.122 321.233,127.331 320.468,128.224 319.947 C 129.117 319.426,131.115 318.230,132.664 317.290 C 135.939 315.301,136.327 315.357,137.629 318.009 C 138.163 319.097,138.735 319.990,138.900 319.994 C 139.065 319.997,139.200 320.193,139.200 320.428 C 139.200 320.816,140.810 323.330,142.379 325.391 C 152.707 338.959,174.202 337.650,178.347 323.200 C 178.568 322.430,178.940 321.059,179.174 320.154 C 179.467 319.021,179.600 297.619,179.600 251.627 C 179.600 206.072,179.733 184.499,180.016 183.970 C 180.421 183.214,180.965 183.195,199.116 183.296 L 217.800 183.400 217.919 251.000 " stroke="none" fill="#fbdb04" fill-rule="evenodd"></path><path id="path2" d="M296.200 181.607 C 295.320 181.769,296.400 181.809,298.600 181.696 C 300.800 181.582,302.675 181.425,302.767 181.345 C 303.056 181.093,297.871 181.300,296.200 181.607 M305.633 181.345 C 305.725 181.424,307.870 181.585,310.400 181.701 C 313.347 181.837,314.353 181.796,313.200 181.586 C 311.414 181.262,305.314 181.067,305.633 181.345 M290.800 182.400 C 290.008 182.654,289.967 182.720,290.600 182.720 C 291.040 182.720,291.850 182.576,292.400 182.400 C 293.192 182.146,293.233 182.080,292.600 182.080 C 292.160 182.080,291.350 182.224,290.800 182.400 M317.600 182.400 C 318.150 182.576,319.050 182.717,319.600 182.713 C 320.498 182.706,320.478 182.674,319.400 182.400 C 317.708 181.969,316.256 181.969,317.600 182.400 M287.200 183.200 C 286.396 183.457,286.357 183.523,287.000 183.532 C 287.440 183.538,288.160 183.389,288.600 183.200 C 289.619 182.762,288.568 182.762,287.200 183.200 M321.600 183.194 C 321.930 183.411,322.635 183.591,323.167 183.594 C 324.451 183.602,324.125 183.375,322.400 183.058 C 321.415 182.877,321.178 182.918,321.600 183.194 M180.014 183.974 C 179.733 184.499,179.620 206.001,179.663 251.074 C 179.698 287.553,179.855 316.140,180.013 314.600 C 180.171 313.060,180.323 282.952,180.350 247.692 L 180.400 183.585 199.162 183.692 C 209.481 183.752,217.840 183.665,217.738 183.500 C 217.247 182.706,180.445 183.168,180.014 183.974 M284.400 184.000 C 283.576 184.264,283.541 184.326,284.200 184.354 C 284.640 184.373,285.270 184.213,285.600 184.000 C 286.301 183.547,285.814 183.547,284.400 184.000 M324.433 183.763 C 324.525 183.853,326.202 184.474,328.160 185.144 C 330.118 185.813,331.558 186.205,331.360 186.015 C 331.162 185.825,329.601 185.204,327.892 184.635 C 324.854 183.624,324.096 183.432,324.433 183.763 M279.323 185.745 C 276.498 186.936,276.054 187.484,278.800 186.392 C 282.451 184.939,282.637 184.850,282.000 184.860 C 281.670 184.865,280.465 185.264,279.323 185.745 M332.033 186.552 C 332.441 186.924,336.400 188.793,336.400 188.613 C 336.400 188.388,332.580 186.400,332.147 186.400 C 331.993 186.400,331.942 186.468,332.033 186.552 M273.200 188.836 C 272.536 189.379,272.469 189.515,273.000 189.240 C 274.305 188.566,275.028 188.012,274.600 188.015 C 274.380 188.017,273.750 188.386,273.200 188.836 M341.400 192.188 C 342.060 192.729,342.749 193.178,342.931 193.186 C 343.113 193.194,342.727 192.750,342.073 192.200 C 341.419 191.650,340.730 191.201,340.542 191.202 C 340.354 191.203,340.740 191.647,341.400 192.188 M265.038 194.600 C 264.399 195.150,264.052 195.600,264.268 195.600 C 264.484 195.600,265.083 195.150,265.600 194.600 C 266.805 193.318,266.529 193.318,265.038 194.600 M347.100 197.142 C 349.135 199.190,350.800 201.030,350.800 201.232 C 350.800 201.435,350.995 201.600,351.234 201.600 C 351.851 201.600,347.513 196.749,345.277 194.939 C 344.245 194.104,345.065 195.095,347.100 197.142 M260.026 199.722 L 259.051 201.000 260.326 199.825 C 261.651 198.603,261.803 198.385,261.300 198.422 C 261.135 198.434,260.562 199.019,260.026 199.722 M352.340 203.116 C 352.833 203.809,353.444 204.504,353.697 204.660 C 353.950 204.817,353.754 204.377,353.260 203.684 C 352.767 202.991,352.156 202.296,351.903 202.140 C 351.650 201.983,351.846 202.423,352.340 203.116 M256.871 203.843 C 255.605 205.797,255.937 205.885,257.296 203.956 C 257.899 203.100,258.259 202.402,258.096 202.405 C 257.933 202.408,257.382 203.055,256.871 203.843 M255.014 207.035 C 254.641 207.604,254.405 208.138,254.489 208.222 C 254.573 208.307,254.958 207.841,255.344 207.188 C 256.206 205.728,255.948 205.609,255.014 207.035 M357.018 209.800 C 357.168 210.240,357.374 210.885,357.475 211.234 C 357.601 211.670,356.840 212.401,355.029 213.581 C 353.583 214.523,352.400 215.373,352.400 215.471 C 352.400 215.695,352.870 215.417,355.700 213.515 C 358.162 211.861,358.309 211.550,357.358 210.000 C 356.946 209.329,356.834 209.263,357.018 209.800 M251.240 215.840 C 251.010 216.673,250.894 217.427,250.982 217.515 C 251.070 217.603,251.330 216.993,251.560 216.160 C 251.790 215.327,251.906 214.573,251.818 214.485 C 251.730 214.397,251.470 215.007,251.240 215.840 M303.111 214.693 C 304.051 214.778,305.491 214.777,306.311 214.691 C 307.130 214.605,306.360 214.536,304.600 214.537 C 302.840 214.539,302.170 214.609,303.111 214.693 M298.400 215.195 C 297.991 215.455,298.310 215.499,299.400 215.332 C 301.377 215.029,301.714 214.798,300.167 214.806 C 299.525 214.809,298.730 214.984,298.400 215.195 M308.900 215.076 C 309.285 215.176,309.915 215.176,310.300 215.076 C 310.685 214.975,310.370 214.893,309.600 214.893 C 308.830 214.893,308.515 214.975,308.900 215.076 M294.774 216.589 C 293.769 217.112,292.692 217.869,292.381 218.270 C 291.842 218.964,291.853 218.967,292.608 218.327 C 293.045 217.957,294.392 217.194,295.601 216.631 C 296.811 216.068,297.530 215.614,297.200 215.623 C 296.870 215.631,295.778 216.065,294.774 216.589 M349.162 217.241 C 346.774 218.771,344.964 220.177,346.400 219.387 C 347.914 218.555,352.000 215.911,352.000 215.764 C 352.000 215.456,351.723 215.600,349.162 217.241 M318.656 218.929 C 319.945 219.879,321.580 221.319,322.288 222.129 C 322.996 222.938,323.709 223.600,323.873 223.600 C 324.381 223.600,320.289 219.591,318.528 218.365 C 315.932 216.557,316.031 216.993,318.656 218.929 M250.449 218.600 C 250.416 219.040,250.296 219.850,250.183 220.400 L 249.977 221.400 250.406 220.419 C 250.642 219.879,250.761 219.069,250.672 218.619 C 250.513 217.821,250.507 217.821,250.449 218.600 M249.400 224.400 C 249.244 225.747,249.201 226.934,249.305 227.038 C 249.409 227.142,249.619 226.122,249.771 224.771 C 249.924 223.421,249.967 222.234,249.867 222.133 C 249.766 222.033,249.556 223.053,249.400 224.400 M324.896 225.395 C 325.393 226.162,325.944 226.792,326.120 226.795 C 326.297 226.798,325.960 226.170,325.373 225.400 C 324.000 223.600,323.732 223.597,324.896 225.395 M337.776 224.587 C 337.349 224.910,337.180 225.175,337.400 225.175 C 337.620 225.175,338.149 224.910,338.576 224.587 C 339.004 224.264,339.173 224.000,338.953 224.000 C 338.733 224.000,338.204 224.264,337.776 224.587 M287.029 226.229 C 286.881 226.815,286.838 227.372,286.932 227.466 C 287.027 227.560,287.224 227.158,287.371 226.571 C 287.519 225.985,287.562 225.428,287.468 225.334 C 287.373 225.240,287.176 225.642,287.029 226.229 M330.200 229.410 C 329.320 229.952,328.759 230.397,328.953 230.398 C 329.363 230.400,332.000 228.816,332.000 228.567 C 332.000 228.313,331.921 228.351,330.200 229.410 M286.812 234.400 C 286.812 234.730,286.987 235.270,287.200 235.600 C 287.545 236.133,287.588 236.133,287.588 235.600 C 287.588 235.270,287.413 234.730,287.200 234.400 C 286.855 233.867,286.812 233.867,286.812 234.400 M249.293 236.400 C 249.285 237.170,249.416 238.790,249.583 240.000 C 249.848 241.916,249.890 241.993,249.909 240.600 C 249.920 239.720,249.790 238.100,249.618 237.000 C 249.369 235.397,249.304 235.278,249.293 236.400 M290.000 241.325 C 290.000 241.394,290.573 241.979,291.274 242.625 L 292.549 243.800 291.574 242.522 C 290.747 241.437,290.000 240.869,290.000 241.325 M296.600 246.596 C 297.494 247.339,300.028 248.709,299.400 248.110 C 299.180 247.900,298.280 247.324,297.400 246.830 C 296.520 246.335,296.160 246.230,296.600 246.596 M251.044 247.400 C 251.373 248.871,251.602 249.190,251.594 248.167 C 251.591 247.745,251.405 247.130,251.182 246.800 C 250.885 246.362,250.848 246.524,251.044 247.400 M251.819 250.201 C 251.975 250.860,252.257 251.568,252.445 251.773 C 252.632 251.978,252.615 251.549,252.405 250.819 C 251.918 249.118,251.444 248.619,251.819 250.201 M303.600 250.400 C 304.810 251.039,305.980 251.562,306.200 251.562 C 306.420 251.562,305.610 251.039,304.400 250.400 C 303.190 249.761,302.020 249.238,301.800 249.238 C 301.580 249.238,302.390 249.761,303.600 250.400 M307.000 251.909 C 307.220 252.113,308.210 252.591,309.200 252.970 C 310.190 253.350,310.820 253.495,310.600 253.291 C 310.380 253.087,309.390 252.609,308.400 252.230 C 307.410 251.850,306.780 251.705,307.000 251.909 M311.254 253.787 C 311.590 254.123,314.400 255.216,314.400 255.011 C 314.400 254.901,313.748 254.538,312.951 254.205 C 311.475 253.589,310.918 253.451,311.254 253.787 M260.715 265.800 C 262.332 267.794,265.691 271.110,267.612 272.610 C 268.168 273.045,267.551 272.398,266.239 271.173 C 264.927 269.948,262.783 267.788,261.474 266.373 C 259.738 264.497,259.532 264.341,260.715 265.800 M335.600 264.979 C 335.600 265.089,336.140 265.459,336.800 265.800 C 337.460 266.141,338.000 266.331,338.000 266.221 C 338.000 266.111,337.460 265.741,336.800 265.400 C 336.140 265.059,335.600 264.869,335.600 264.979 M339.200 267.164 C 339.750 267.614,340.380 267.983,340.600 267.985 C 341.028 267.988,340.305 267.434,339.000 266.760 C 338.469 266.485,338.536 266.621,339.200 267.164 M341.400 268.275 C 342.159 269.019,347.253 272.410,347.002 272.004 C 346.864 271.779,345.727 270.908,344.475 270.068 C 341.836 268.295,340.811 267.697,341.400 268.275 M349.200 273.908 C 350.190 274.794,351.077 275.445,351.171 275.355 C 351.348 275.186,350.657 274.591,348.600 273.142 C 347.940 272.678,348.210 273.022,349.200 273.908 M354.400 278.599 C 356.050 280.347,357.445 281.857,357.500 281.955 C 357.555 282.053,357.685 282.048,357.789 281.944 C 357.990 281.744,354.524 278.072,352.566 276.411 C 351.925 275.866,352.750 276.851,354.400 278.599 M272.400 276.295 C 272.400 276.684,274.014 277.719,274.251 277.482 C 274.347 277.386,273.969 277.010,273.412 276.645 C 272.856 276.280,272.400 276.122,272.400 276.295 M274.803 277.888 C 274.805 278.059,275.570 278.632,276.503 279.161 C 280.753 281.567,283.200 282.836,283.200 282.633 C 283.200 282.512,282.294 281.954,281.187 281.393 C 280.079 280.832,278.189 279.744,276.987 278.974 C 275.784 278.205,274.801 277.716,274.803 277.888 M283.600 282.996 C 283.600 283.270,286.049 284.484,286.232 284.301 C 286.319 284.214,285.762 283.844,284.995 283.478 C 284.228 283.112,283.600 282.895,283.600 282.996 M363.218 290.300 C 363.919 291.675,364.556 292.800,364.633 292.800 C 364.999 292.800,363.084 288.968,362.334 288.200 C 362.119 287.980,362.517 288.925,363.218 290.300 M306.800 293.389 C 306.800 293.706,309.700 294.833,309.928 294.605 C 310.041 294.492,310.035 294.400,309.916 294.400 C 309.796 294.400,309.046 294.128,308.249 293.795 C 307.452 293.462,306.800 293.279,306.800 293.389 M365.616 295.325 C 365.592 295.811,366.867 299.600,367.054 299.600 C 367.143 299.600,367.093 299.105,366.943 298.500 C 366.622 297.208,365.638 294.854,365.616 295.325 M312.095 295.820 C 312.258 295.987,313.158 296.467,314.095 296.885 C 315.033 297.304,315.620 297.465,315.400 297.244 C 315.180 297.023,314.280 296.543,313.400 296.179 C 312.520 295.814,311.933 295.653,312.095 295.820 M320.400 300.137 C 320.400 300.223,321.165 300.798,322.100 301.415 C 323.061 302.049,323.552 302.234,323.229 301.842 C 322.687 301.182,320.400 299.804,320.400 300.137 M367.256 300.800 C 367.256 301.130,367.411 301.760,367.600 302.200 C 367.817 302.704,367.944 302.778,367.944 302.400 C 367.944 302.070,367.789 301.440,367.600 301.000 C 367.383 300.496,367.256 300.422,367.256 300.800 M325.600 304.193 C 326.590 305.288,327.445 306.263,327.500 306.359 C 327.555 306.455,327.686 306.447,327.791 306.343 C 327.896 306.238,327.041 305.263,325.891 304.176 L 323.800 302.200 325.600 304.193 M368.070 304.600 C 368.057 305.040,368.195 306.120,368.377 307.000 C 368.655 308.345,368.708 308.409,368.707 307.400 C 368.705 305.999,368.108 303.370,368.070 304.600 M368.957 316.000 C 368.957 318.970,369.020 320.185,369.097 318.700 C 369.174 317.215,369.174 314.785,369.097 313.300 C 369.020 311.815,368.957 313.030,368.957 316.000 M330.681 314.000 C 330.806 315.210,330.974 316.275,331.054 316.367 C 331.335 316.687,331.117 313.791,330.787 312.800 C 330.571 312.154,330.534 312.580,330.681 314.000 M267.436 312.742 C 267.320 312.930,267.741 313.065,268.373 313.042 C 269.005 313.019,269.438 312.865,269.337 312.700 C 269.085 312.290,267.696 312.320,267.436 312.742 M261.400 316.252 C 258.414 318.021,257.466 318.909,260.231 317.347 C 262.432 316.104,264.320 314.846,264.000 314.836 C 263.890 314.833,262.720 315.470,261.400 316.252 M134.300 316.229 C 132.758 317.065,132.919 317.366,134.478 316.560 C 135.739 315.907,135.767 315.913,136.713 317.050 C 137.587 318.099,137.628 318.112,137.176 317.200 C 136.336 315.506,135.903 315.359,134.300 316.229 M131.300 318.046 C 129.937 318.919,129.495 319.506,130.700 318.843 C 131.618 318.339,133.056 317.227,132.800 317.219 C 132.690 317.216,132.015 317.588,131.300 318.046 M330.854 318.000 C 330.819 318.550,330.696 319.450,330.583 320.000 L 330.377 321.000 330.807 320.015 C 331.043 319.474,331.165 318.574,331.078 318.015 L 330.920 317.000 330.854 318.000 M217.412 320.612 C 217.255 322.288,217.211 323.744,217.314 323.848 C 217.418 323.951,217.631 322.664,217.788 320.988 C 217.945 319.312,217.989 317.856,217.886 317.752 C 217.782 317.649,217.569 318.936,217.412 320.612 M256.400 319.236 C 255.736 319.779,255.669 319.915,256.200 319.640 C 257.505 318.966,258.228 318.412,257.800 318.415 C 257.580 318.417,256.950 318.786,256.400 319.236 M179.000 320.400 C 178.848 321.091,178.814 321.747,178.924 321.857 C 179.034 321.967,179.248 321.491,179.400 320.800 C 179.552 320.109,179.586 319.453,179.476 319.343 C 179.366 319.233,179.152 319.709,179.000 320.400 M126.800 320.836 C 126.136 321.379,126.069 321.515,126.600 321.240 C 127.905 320.566,128.628 320.012,128.200 320.015 C 127.980 320.017,127.350 320.386,126.800 320.836 M253.600 320.836 C 252.936 321.379,252.869 321.515,253.400 321.240 C 254.705 320.566,255.428 320.012,255.000 320.015 C 254.780 320.017,254.150 320.386,253.600 320.836 M250.800 322.433 L 249.800 323.248 251.100 322.614 C 251.815 322.265,252.400 321.894,252.400 321.790 C 252.400 321.392,251.763 321.648,250.800 322.433 M122.800 323.233 L 121.800 324.048 123.100 323.414 C 123.815 323.065,124.400 322.694,124.400 322.590 C 124.400 322.192,123.763 322.448,122.800 323.233 M368.200 325.600 C 368.046 326.510,368.011 327.344,368.121 327.454 C 368.231 327.564,368.446 326.910,368.600 326.000 C 368.754 325.090,368.789 324.256,368.679 324.146 C 368.569 324.036,368.354 324.690,368.200 325.600 M142.781 326.376 C 144.358 328.368,147.803 331.478,149.275 332.239 C 151.010 333.136,150.610 332.671,148.434 331.261 C 146.484 329.997,142.400 325.873,142.400 325.168 C 142.400 324.965,142.205 324.800,141.966 324.800 C 141.728 324.800,142.095 325.509,142.781 326.376 M216.600 326.800 C 216.446 327.710,216.404 328.538,216.507 328.640 C 216.610 328.743,216.813 328.077,216.960 327.160 C 217.107 326.243,217.148 325.415,217.053 325.320 C 216.958 325.224,216.754 325.890,216.600 326.800 M244.000 326.433 L 243.000 327.248 244.300 326.614 C 245.015 326.265,245.600 325.894,245.600 325.790 C 245.600 325.392,244.963 325.648,244.000 326.433 M326.083 327.901 C 324.243 329.857,324.708 329.938,326.607 327.993 C 327.463 327.117,327.991 326.423,327.781 326.451 C 327.572 326.479,326.808 327.131,326.083 327.901 M113.600 328.833 L 112.600 329.648 113.900 329.014 C 114.615 328.665,115.200 328.294,115.200 328.190 C 115.200 327.792,114.563 328.048,113.600 328.833 M367.400 329.600 C 367.248 330.291,367.207 330.941,367.309 331.042 C 367.411 331.144,367.609 330.653,367.750 329.950 C 367.891 329.247,367.931 328.598,367.841 328.508 C 367.750 328.417,367.552 328.909,367.400 329.600 M238.900 329.288 C 237.979 329.732,237.686 330.959,238.395 331.397 C 238.629 331.541,238.685 331.366,238.533 330.970 C 238.363 330.526,238.603 330.046,239.238 329.558 C 240.319 328.726,240.223 328.650,238.900 329.288 M174.391 330.184 C 173.846 330.726,172.410 331.713,171.200 332.377 C 168.581 333.816,168.818 334.012,171.513 332.637 C 172.551 332.108,173.929 331.118,174.575 330.437 C 175.968 328.970,175.819 328.766,174.391 330.184 M215.802 330.500 C 215.658 331.215,215.455 332.160,215.351 332.600 C 215.204 333.220,215.245 333.265,215.530 332.800 C 215.949 332.116,216.532 329.200,216.250 329.200 C 216.147 329.200,215.946 329.785,215.802 330.500 M109.900 331.029 C 108.405 331.840,108.496 332.178,110.000 331.400 C 110.660 331.059,111.200 330.694,111.200 330.590 C 111.200 330.332,111.157 330.347,109.900 331.029 M366.229 333.629 C 365.858 334.761,365.627 335.760,365.715 335.849 C 365.803 335.937,366.176 335.079,366.543 333.943 C 366.910 332.807,367.141 331.808,367.056 331.723 C 366.972 331.638,366.599 332.496,366.229 333.629 M106.100 333.288 C 105.193 333.726,104.846 335.334,105.563 335.777 C 105.762 335.900,105.825 335.617,105.702 335.148 C 105.546 334.549,105.765 334.075,106.440 333.556 C 107.519 332.726,107.423 332.650,106.100 333.288 M153.200 333.994 C 153.530 334.211,154.235 334.391,154.767 334.394 C 156.051 334.402,155.725 334.175,154.000 333.858 C 153.015 333.677,152.778 333.718,153.200 333.994 M295.000 333.990 C 295.764 334.328,298.314 334.557,297.967 334.256 C 297.875 334.176,296.990 334.004,296.000 333.873 C 294.798 333.714,294.466 333.753,295.000 333.990 M314.200 334.000 C 313.111 334.277,313.093 334.307,314.000 334.325 C 314.550 334.335,315.360 334.189,315.800 334.000 C 316.786 333.576,315.866 333.576,314.200 334.000 M163.300 334.676 C 163.685 334.776,164.315 334.776,164.700 334.676 C 165.085 334.575,164.770 334.493,164.000 334.493 C 163.230 334.493,162.915 334.575,163.300 334.676 M159.300 335.087 C 159.905 335.178,160.895 335.178,161.500 335.087 C 162.105 334.995,161.610 334.920,160.400 334.920 C 159.190 334.920,158.695 334.995,159.300 335.087 M240.400 335.016 C 240.400 335.134,241.030 336.167,241.800 337.310 C 243.543 339.898,243.640 339.561,241.940 336.827 C 240.757 334.923,240.400 334.503,240.400 335.016 M302.900 335.097 C 304.385 335.174,306.815 335.174,308.300 335.097 C 309.785 335.020,308.570 334.957,305.600 334.957 C 302.630 334.957,301.415 335.020,302.900 335.097 M214.044 336.444 C 213.798 337.151,213.666 337.800,213.752 337.885 C 213.838 337.971,214.109 337.462,214.356 336.756 C 214.602 336.049,214.734 335.400,214.648 335.315 C 214.562 335.229,214.291 335.738,214.044 336.444 M106.009 336.700 C 106.014 336.865,106.385 337.450,106.833 338.000 L 107.648 339.000 107.014 337.700 C 106.411 336.465,105.989 336.045,106.009 336.700 M364.465 338.217 C 363.795 339.688,363.923 340.002,364.647 338.665 C 364.986 338.040,365.188 337.454,365.096 337.363 C 365.005 337.271,364.721 337.656,364.465 338.217 M213.200 338.484 C 213.200 338.604,212.928 339.354,212.595 340.151 C 212.262 340.948,212.079 341.600,212.189 341.600 C 212.506 341.600,213.633 338.700,213.405 338.472 C 213.292 338.359,213.200 338.365,213.200 338.484 M360.726 344.844 C 359.695 346.360,358.975 347.596,359.126 347.592 C 359.443 347.582,362.921 342.382,362.728 342.206 C 362.658 342.142,361.757 343.329,360.726 344.844 M247.119 344.200 C 248.338 345.797,252.719 350.132,255.011 352.008 C 255.678 352.554,254.830 351.686,253.127 350.080 C 251.424 348.474,249.101 346.134,247.964 344.880 C 246.817 343.614,246.441 343.312,247.119 344.200 M210.253 344.900 L 209.533 346.200 210.358 345.200 C 211.089 344.313,211.414 343.600,211.086 343.600 C 211.024 343.600,210.649 344.185,210.253 344.900 M111.540 345.516 C 112.033 346.209,112.644 346.904,112.897 347.060 C 113.150 347.217,112.954 346.777,112.460 346.084 C 111.967 345.391,111.356 344.696,111.103 344.540 C 110.850 344.383,111.046 344.823,111.540 345.516 M115.389 350.171 C 116.631 351.585,118.491 353.413,119.523 354.234 C 120.620 355.105,119.740 354.036,117.408 351.663 C 112.804 346.978,112.184 346.520,115.389 350.171 M353.400 353.299 L 351.000 355.725 353.502 353.621 C 356.032 351.494,356.713 350.771,356.124 350.836 C 355.946 350.856,354.720 351.964,353.400 353.299 M256.800 353.325 C 256.800 353.424,257.461 354.009,258.268 354.625 C 259.076 355.241,259.611 355.541,259.456 355.291 C 259.140 354.779,256.800 353.047,256.800 353.325 M260.000 355.714 C 260.000 355.955,263.106 358.000,263.471 358.000 C 263.630 358.000,263.589 357.849,263.380 357.664 C 262.752 357.108,260.000 355.521,260.000 355.714 M347.232 358.063 C 344.628 359.908,344.870 360.131,347.528 358.335 C 349.831 356.779,349.769 356.830,349.567 356.663 C 349.475 356.588,348.424 357.218,347.232 358.063 M343.400 360.400 C 342.740 360.837,342.380 361.192,342.600 361.188 C 343.001 361.182,345.176 359.623,344.800 359.612 C 344.690 359.608,344.060 359.963,343.400 360.400 M128.600 360.729 C 129.167 361.297,134.022 363.712,134.213 363.520 C 134.300 363.433,132.983 362.679,131.286 361.845 C 129.589 361.010,128.380 360.508,128.600 360.729 M193.800 361.200 C 193.140 361.637,192.780 361.992,193.000 361.988 C 193.401 361.982,195.576 360.423,195.200 360.412 C 195.090 360.408,194.460 360.763,193.800 361.200 M340.200 362.000 C 339.320 362.425,338.797 362.779,339.039 362.786 C 339.542 362.802,342.000 361.627,342.000 361.371 C 342.000 361.132,341.987 361.137,340.200 362.000 M273.744 363.078 C 274.108 363.442,278.114 364.819,278.292 364.642 C 278.374 364.560,277.847 364.276,277.120 364.011 C 274.932 363.212,273.476 362.810,273.744 363.078 M336.400 363.600 C 335.410 364.015,334.803 364.365,335.051 364.378 C 335.618 364.406,338.400 363.257,338.400 362.995 C 338.400 362.748,338.512 362.714,336.400 363.600 M135.048 363.993 C 135.490 364.416,141.650 366.483,141.856 366.277 C 141.939 366.194,140.363 365.570,138.352 364.891 C 136.341 364.212,134.854 363.808,135.048 363.993 M278.833 364.944 C 278.925 365.023,279.540 365.208,280.200 365.356 C 281.076 365.552,281.238 365.515,280.800 365.218 C 280.260 364.853,278.432 364.598,278.833 364.944 M329.800 365.815 C 328.216 366.363,328.214 366.366,329.600 366.138 C 330.370 366.012,331.270 365.754,331.600 365.566 C 332.481 365.064,331.630 365.182,329.800 365.815 M142.433 366.543 C 142.525 366.621,143.230 366.801,144.000 366.942 C 144.985 367.123,145.222 367.082,144.800 366.806 C 144.258 366.450,142.037 366.203,142.433 366.543 M179.200 366.806 C 178.778 367.082,179.015 367.123,180.000 366.942 C 181.725 366.625,182.051 366.398,180.767 366.406 C 180.235 366.409,179.530 366.589,179.200 366.806 M285.600 366.800 C 286.968 367.238,288.019 367.238,287.000 366.800 C 286.560 366.611,285.840 366.462,285.400 366.468 C 284.757 366.477,284.796 366.543,285.600 366.800 M325.800 366.800 C 324.781 367.238,325.832 367.238,327.200 366.800 C 328.004 366.543,328.043 366.477,327.400 366.468 C 326.960 366.462,326.240 366.611,325.800 366.800 M147.000 367.600 C 148.692 368.031,150.144 368.031,148.800 367.600 C 148.250 367.424,147.350 367.283,146.800 367.287 C 145.902 367.294,145.922 367.326,147.000 367.600 M175.200 367.600 C 173.856 368.031,175.308 368.031,177.000 367.600 C 178.078 367.326,178.098 367.294,177.200 367.287 C 176.650 367.283,175.750 367.424,175.200 367.600 M288.433 367.349 C 288.525 367.431,289.500 367.601,290.600 367.728 C 291.949 367.884,292.274 367.849,291.600 367.620 C 290.601 367.280,288.118 367.068,288.433 367.349 M321.600 367.600 C 320.256 368.031,321.708 368.031,323.400 367.600 C 324.478 367.326,324.498 367.294,323.600 367.287 C 323.050 367.283,322.150 367.424,321.600 367.600 M152.400 368.420 C 153.390 368.597,154.830 368.730,155.600 368.717 C 156.745 368.697,156.635 368.636,155.000 368.382 C 152.253 367.954,149.969 367.988,152.400 368.420 M168.200 368.400 C 166.280 368.663,166.264 368.676,167.800 368.708 C 168.680 368.726,170.210 368.597,171.200 368.420 C 173.570 367.999,171.241 367.983,168.200 368.400 M295.400 368.418 C 296.500 368.590,298.030 368.722,298.800 368.712 C 299.933 368.697,299.818 368.634,298.200 368.382 C 297.100 368.210,295.570 368.078,294.800 368.088 C 293.667 368.103,293.782 368.166,295.400 368.418 M314.600 368.400 L 313.000 368.686 314.400 368.714 C 315.170 368.729,316.610 368.597,317.600 368.420 L 319.400 368.100 317.800 368.107 C 316.920 368.111,315.480 368.242,314.600 368.400 " stroke="none" fill="#a89704" fill-rule="evenodd"></path><path id="path3" d="M301.900 181.897 C 303.495 181.973,306.105 181.973,307.700 181.897 C 309.295 181.821,307.990 181.759,304.800 181.759 C 301.610 181.759,300.305 181.821,301.900 181.897 M293.200 182.413 C 292.554 182.629,292.980 182.666,294.400 182.519 C 295.610 182.394,296.675 182.226,296.767 182.146 C 297.087 181.865,294.191 182.083,293.200 182.413 M313.505 182.283 C 314.002 182.379,314.722 182.375,315.105 182.275 C 315.487 182.175,315.080 182.096,314.200 182.101 C 313.320 182.105,313.007 182.187,313.505 182.283 M289.000 183.200 C 287.981 183.638,289.032 183.638,290.400 183.200 C 291.204 182.943,291.243 182.877,290.600 182.868 C 290.160 182.862,289.440 183.011,289.000 183.200 M180.499 247.696 L 180.598 311.800 180.700 247.900 L 180.802 184.000 199.200 184.000 L 217.598 184.000 217.701 249.500 L 217.804 315.000 217.802 249.400 L 217.800 183.800 199.100 183.696 L 180.400 183.592 180.499 247.696 M273.500 189.029 C 272.005 189.840,272.096 190.178,273.600 189.400 C 274.260 189.059,274.800 188.694,274.800 188.590 C 274.800 188.332,274.757 188.347,273.500 189.029 M338.000 190.124 C 338.000 190.217,338.765 190.798,339.700 191.415 C 340.635 192.032,341.189 192.280,340.931 191.968 C 340.434 191.367,338.000 189.836,338.000 190.124 M346.600 197.200 C 348.350 198.960,349.871 200.400,349.981 200.400 C 350.091 200.400,348.750 198.960,347.000 197.200 C 345.250 195.440,343.729 194.000,343.619 194.000 C 343.509 194.000,344.850 195.440,346.600 197.200 M262.812 197.388 C 261.179 199.032,259.924 200.430,260.022 200.495 C 260.120 200.560,261.538 199.216,263.172 197.507 C 266.965 193.543,266.713 193.461,262.812 197.388 M350.406 201.033 C 350.409 201.235,351.056 202.120,351.844 203.000 L 353.276 204.600 351.961 202.800 C 351.237 201.810,350.590 200.925,350.523 200.833 C 350.455 200.742,350.403 200.832,350.406 201.033 M257.693 203.500 C 256.657 204.996,256.321 205.600,256.523 205.600 C 256.617 205.600,257.170 204.880,257.753 204.000 C 258.936 202.212,258.884 201.779,257.693 203.500 M355.949 209.000 C 356.165 209.440,356.634 210.160,356.993 210.600 L 357.644 211.400 357.251 210.600 C 357.035 210.160,356.566 209.440,356.207 209.000 L 355.556 208.200 355.949 209.000 M300.315 214.328 C 299.938 214.478,301.956 214.600,304.800 214.600 C 307.644 214.600,309.662 214.478,309.285 214.328 C 308.908 214.179,306.890 214.056,304.800 214.056 C 302.710 214.056,300.692 214.179,300.315 214.328 M316.790 217.083 C 317.334 217.477,318.594 218.393,319.590 219.117 L 321.400 220.434 319.939 219.117 C 319.136 218.393,317.876 217.477,317.139 217.083 C 315.851 216.393,315.838 216.393,316.790 217.083 M347.031 218.211 C 344.050 220.142,343.198 220.821,344.800 219.989 C 346.097 219.315,350.000 216.729,350.000 216.543 C 350.000 216.298,349.874 216.369,347.031 218.211 M290.575 219.300 L 289.400 220.600 290.700 219.425 C 291.415 218.779,292.000 218.194,292.000 218.125 C 292.000 217.816,291.670 218.088,290.575 219.300 M250.200 221.600 C 250.048 222.291,250.007 222.941,250.109 223.042 C 250.211 223.144,250.409 222.653,250.550 221.950 C 250.691 221.247,250.731 220.598,250.641 220.508 C 250.550 220.417,250.352 220.909,250.200 221.600 M338.881 223.372 C 337.125 224.614,336.697 225.145,338.200 224.218 C 340.278 222.935,340.991 222.399,340.589 222.420 C 340.375 222.430,339.607 222.859,338.881 223.372 M325.902 226.133 C 326.726 227.331,327.462 228.253,327.539 228.183 C 327.719 228.018,325.309 224.515,324.796 224.198 C 324.580 224.064,325.078 224.935,325.902 226.133 M249.701 227.000 C 249.705 227.880,249.787 228.193,249.883 227.695 C 249.979 227.198,249.975 226.478,249.875 226.095 C 249.775 225.713,249.696 226.120,249.701 227.000 M329.876 229.246 C 329.477 229.477,328.883 229.564,328.555 229.438 C 328.218 229.309,328.065 229.381,328.203 229.605 C 328.551 230.167,329.323 230.094,330.224 229.413 C 331.126 228.730,330.926 228.634,329.876 229.246 M249.293 230.800 C 249.293 231.570,249.375 231.885,249.476 231.500 C 249.576 231.115,249.576 230.485,249.476 230.100 C 249.375 229.715,249.293 230.030,249.293 230.800 M286.493 234.000 C 286.493 234.770,286.575 235.085,286.676 234.700 C 286.776 234.315,286.776 233.685,286.676 233.300 C 286.575 232.915,286.493 233.230,286.493 234.000 M249.724 235.400 C 249.726 236.720,249.801 237.212,249.890 236.493 C 249.979 235.774,249.977 234.694,249.886 234.093 C 249.795 233.492,249.722 234.080,249.724 235.400 M250.028 240.633 C 250.044 241.275,250.216 242.160,250.410 242.600 C 250.647 243.134,250.686 242.802,250.527 241.600 C 250.246 239.480,249.988 238.980,250.028 240.633 M291.183 242.900 C 292.164 243.945,293.019 244.800,293.083 244.800 C 293.384 244.800,293.066 244.441,291.300 242.783 L 289.400 241.000 291.183 242.900 M260.000 264.264 C 260.000 264.482,260.495 265.097,261.100 265.630 L 262.200 266.600 261.200 265.400 C 260.650 264.740,260.155 264.125,260.100 264.033 C 260.045 263.942,260.000 264.045,260.000 264.264 M334.800 264.979 C 334.800 265.089,335.340 265.459,336.000 265.800 C 336.660 266.141,337.200 266.331,337.200 266.221 C 337.200 266.111,336.660 265.741,336.000 265.400 C 335.340 265.059,334.800 264.869,334.800 264.979 M263.800 268.800 C 264.883 269.900,265.860 270.800,265.970 270.800 C 266.080 270.800,265.283 269.900,264.200 268.800 C 263.117 267.700,262.140 266.800,262.030 266.800 C 261.920 266.800,262.717 267.700,263.800 268.800 M342.800 269.724 C 342.800 269.817,343.565 270.398,344.500 271.015 C 345.435 271.632,345.989 271.880,345.731 271.568 C 345.234 270.967,342.800 269.436,342.800 269.724 M269.200 273.325 C 269.200 273.424,269.861 274.009,270.668 274.625 C 271.476 275.241,272.011 275.541,271.856 275.291 C 271.540 274.779,269.200 273.047,269.200 273.325 M351.643 276.500 C 351.739 276.555,352.894 277.590,354.209 278.800 L 356.600 281.000 354.414 278.700 C 353.211 277.435,352.056 276.400,351.847 276.400 C 351.638 276.400,351.546 276.445,351.643 276.500 M357.601 282.600 C 358.151 283.260,358.645 283.875,358.700 283.967 C 358.755 284.058,358.888 284.045,358.996 283.938 C 359.104 283.830,358.609 283.215,357.897 282.571 L 356.603 281.400 357.601 282.600 M288.800 285.200 C 289.570 285.622,290.380 285.966,290.600 285.966 C 290.820 285.966,290.370 285.622,289.600 285.200 C 288.830 284.778,288.020 284.434,287.800 284.434 C 287.580 284.434,288.030 284.778,288.800 285.200 M295.654 288.187 C 295.990 288.523,298.800 289.616,298.800 289.411 C 298.800 289.301,298.148 288.938,297.351 288.605 C 295.875 287.989,295.318 287.851,295.654 288.187 M362.200 289.200 C 362.541 289.860,362.911 290.400,363.021 290.400 C 363.131 290.400,362.941 289.860,362.600 289.200 C 362.259 288.540,361.889 288.000,361.779 288.000 C 361.669 288.000,361.859 288.540,362.200 289.200 M368.565 316.000 C 368.565 319.850,368.625 321.425,368.698 319.500 C 368.771 317.575,368.771 314.425,368.698 312.500 C 368.625 310.575,368.565 312.150,368.565 316.000 M267.376 313.422 C 266.635 314.016,266.642 314.024,267.526 313.594 C 268.237 313.249,268.607 313.267,269.126 313.672 C 269.731 314.146,269.744 314.129,269.251 313.500 C 268.578 312.642,268.362 312.633,267.376 313.422 M264.800 314.836 C 264.136 315.379,264.069 315.515,264.600 315.240 C 265.905 314.566,266.628 314.012,266.200 314.015 C 265.980 314.017,265.350 314.386,264.800 314.836 M331.331 316.600 C 331.333 318.140,331.405 318.721,331.492 317.891 C 331.579 317.061,331.577 315.801,331.489 315.091 C 331.400 314.381,331.329 315.060,331.331 316.600 M180.093 316.400 C 180.093 317.170,180.175 317.485,180.276 317.100 C 180.376 316.715,180.376 316.085,180.276 315.700 C 180.175 315.315,180.093 315.630,180.093 316.400 M134.584 316.617 C 133.837 317.215,133.845 317.222,134.762 316.775 C 135.600 316.366,135.827 316.428,136.512 317.253 L 137.298 318.200 136.715 317.222 C 135.965 315.964,135.547 315.845,134.584 316.617 M217.314 317.800 C 217.317 318.900,217.395 319.303,217.487 318.695 C 217.579 318.086,217.577 317.186,217.482 316.695 C 217.387 316.203,217.311 316.700,217.314 317.800 M259.500 317.829 C 258.005 318.640,258.096 318.978,259.600 318.200 C 260.260 317.859,260.800 317.494,260.800 317.390 C 260.800 317.132,260.757 317.147,259.500 317.829 M131.100 318.629 C 129.605 319.440,129.696 319.778,131.200 319.000 C 131.860 318.659,132.400 318.294,132.400 318.190 C 132.400 317.932,132.357 317.947,131.100 318.629 M137.215 318.600 C 137.217 318.820,137.586 319.450,138.036 320.000 C 138.579 320.664,138.715 320.731,138.440 320.200 C 137.766 318.895,137.212 318.172,137.215 318.600 M179.693 319.600 C 179.693 320.370,179.775 320.685,179.876 320.300 C 179.976 319.915,179.976 319.285,179.876 318.900 C 179.775 318.515,179.693 318.830,179.693 319.600 M272.832 319.000 C 273.881 320.528,275.200 322.059,275.185 321.731 C 275.177 321.549,274.520 320.680,273.727 319.800 C 272.933 318.920,272.530 318.560,272.832 319.000 M216.655 323.855 C 216.513 324.886,216.474 325.808,216.569 325.902 C 216.663 325.996,216.865 325.239,217.018 324.218 C 217.171 323.198,217.210 322.276,217.104 322.171 C 216.998 322.065,216.796 322.823,216.655 323.855 M141.930 325.900 C 142.361 326.505,143.128 327.360,143.634 327.800 C 144.140 328.240,143.851 327.745,142.992 326.700 C 141.273 324.608,140.703 324.179,141.930 325.900 M118.900 326.046 C 117.537 326.919,117.095 327.506,118.300 326.843 C 119.218 326.339,120.656 325.227,120.400 325.219 C 120.290 325.216,119.615 325.588,118.900 326.046 M367.649 326.600 C 367.616 327.040,367.496 327.850,367.383 328.400 L 367.177 329.400 367.606 328.419 C 367.842 327.879,367.961 327.069,367.872 326.619 C 367.713 325.821,367.707 325.821,367.649 326.600 M114.900 328.446 C 113.537 329.319,113.095 329.906,114.300 329.243 C 115.218 328.739,116.656 327.627,116.400 327.619 C 116.290 327.616,115.615 327.988,114.900 328.446 M175.023 329.922 C 173.072 332.171,173.068 332.179,174.755 330.600 C 176.176 329.269,177.547 327.538,177.114 327.622 C 177.051 327.634,176.110 328.669,175.023 329.922 M215.829 328.629 C 215.681 329.215,215.638 329.772,215.732 329.866 C 215.827 329.960,216.024 329.558,216.171 328.971 C 216.319 328.385,216.362 327.828,216.268 327.734 C 216.173 327.640,215.976 328.042,215.829 328.629 M282.073 328.226 C 282.443 328.652,283.343 329.341,284.073 329.757 C 285.639 330.650,285.226 330.207,283.000 328.604 C 282.069 327.934,281.682 327.776,282.073 328.226 M239.100 329.632 C 238.333 330.079,238.172 331.012,238.795 331.397 C 239.025 331.539,239.088 331.373,238.945 331.002 C 238.799 330.620,239.003 330.132,239.450 329.794 C 240.321 329.134,240.117 329.040,239.100 329.632 M146.276 330.444 C 146.758 330.970,147.748 331.743,148.476 332.162 C 150.141 333.121,149.917 332.877,147.400 330.988 C 146.222 330.105,145.760 329.881,146.276 330.444 M110.400 331.236 C 109.736 331.779,109.669 331.915,110.200 331.640 C 111.505 330.966,112.228 330.412,111.800 330.415 C 111.580 330.417,110.950 330.786,110.400 331.236 M105.754 334.176 C 105.632 334.492,105.703 335.056,105.912 335.428 C 106.210 335.961,106.281 335.838,106.245 334.853 C 106.195 333.469,106.084 333.315,105.754 334.176 M155.000 334.800 C 155.440 334.989,156.160 335.138,156.600 335.132 C 157.243 335.123,157.204 335.057,156.400 334.800 C 155.032 334.362,153.981 334.362,155.000 334.800 M312.400 334.800 C 311.596 335.057,311.557 335.123,312.200 335.132 C 312.640 335.138,313.360 334.989,313.800 334.800 C 314.819 334.362,313.768 334.362,312.400 334.800 M241.046 335.300 C 241.886 336.732,244.455 340.400,244.618 340.400 C 244.722 340.400,243.969 339.140,242.945 337.600 C 241.920 336.060,241.008 334.800,240.918 334.800 C 240.827 334.800,240.885 335.025,241.046 335.300 M303.900 335.493 C 304.835 335.577,306.365 335.577,307.300 335.493 C 308.235 335.409,307.470 335.340,305.600 335.340 C 303.730 335.340,302.965 335.409,303.900 335.493 M245.927 342.300 C 246.583 343.125,247.622 344.250,248.236 344.800 C 248.849 345.350,248.377 344.675,247.187 343.300 C 244.796 340.539,244.060 339.955,245.927 342.300 M250.600 347.600 C 251.459 348.480,252.237 349.200,252.328 349.200 C 252.665 349.200,249.786 346.066,249.419 346.034 C 249.209 346.015,249.741 346.720,250.600 347.600 M354.000 352.108 C 351.690 354.349,350.520 355.615,351.400 354.921 C 353.003 353.658,358.745 347.985,358.389 348.017 C 358.285 348.026,356.310 349.867,354.000 352.108 M117.685 351.794 C 119.382 353.537,120.825 354.882,120.892 354.782 C 120.959 354.682,119.571 353.256,117.807 351.612 L 114.600 348.625 117.685 351.794 M253.800 350.348 C 254.460 351.077,255.540 352.046,256.200 352.501 C 257.618 353.480,257.298 353.134,254.600 350.774 C 253.122 349.481,252.913 349.370,253.800 350.348 M202.589 354.100 L 199.800 357.000 202.700 354.211 C 205.394 351.620,205.783 351.200,205.489 351.200 C 205.428 351.200,204.123 352.505,202.589 354.100 M257.798 353.596 C 258.031 353.973,261.823 356.635,263.200 357.389 C 264.393 358.042,262.988 356.925,260.273 355.061 C 258.773 354.031,257.659 353.372,257.798 353.596 M347.487 357.368 C 345.126 359.002,344.564 359.575,346.306 358.572 C 347.650 357.799,349.956 356.023,349.600 356.036 C 349.490 356.041,348.539 356.640,347.487 357.368 M327.400 366.000 C 326.896 366.217,326.822 366.344,327.200 366.344 C 327.530 366.344,328.160 366.189,328.600 366.000 C 329.104 365.783,329.178 365.656,328.800 365.656 C 328.470 365.656,327.840 365.811,327.400 366.000 M145.200 366.782 C 145.530 367.005,146.145 367.191,146.567 367.194 C 147.590 367.202,147.271 366.973,145.800 366.644 C 144.924 366.448,144.762 366.485,145.200 366.782 M149.400 367.597 C 150.164 367.928,153.114 368.155,152.767 367.856 C 152.675 367.777,151.700 367.609,150.600 367.482 C 149.313 367.333,148.885 367.374,149.400 367.597 M318.400 367.600 L 316.600 367.880 318.200 367.900 C 319.080 367.911,320.250 367.776,320.800 367.600 C 322.063 367.195,321.002 367.195,318.400 367.600 M171.505 367.883 C 172.002 367.979,172.722 367.975,173.105 367.875 C 173.487 367.775,173.080 367.696,172.200 367.701 C 171.320 367.705,171.007 367.787,171.505 367.883 M293.905 367.883 C 294.402 367.979,295.122 367.975,295.505 367.875 C 295.887 367.775,295.480 367.696,294.600 367.701 C 293.720 367.705,293.407 367.787,293.905 367.883 M155.700 368.287 C 156.305 368.378,157.295 368.378,157.900 368.287 C 158.505 368.195,158.010 368.120,156.800 368.120 C 155.590 368.120,155.095 368.195,155.700 368.287 M165.700 368.287 C 166.305 368.378,167.295 368.378,167.900 368.287 C 168.505 368.195,168.010 368.120,166.800 368.120 C 165.590 368.120,165.095 368.195,165.700 368.287 M298.700 368.282 C 299.195 368.378,300.005 368.378,300.500 368.282 C 300.995 368.187,300.590 368.109,299.600 368.109 C 298.610 368.109,298.205 368.187,298.700 368.282 M312.300 368.282 C 312.795 368.378,313.605 368.378,314.100 368.282 C 314.595 368.187,314.190 368.109,313.200 368.109 C 312.210 368.109,311.805 368.187,312.300 368.282 M161.105 368.683 C 161.602 368.779,162.322 368.775,162.705 368.675 C 163.087 368.575,162.680 368.496,161.800 368.501 C 160.920 368.505,160.607 368.587,161.105 368.683 M304.500 368.694 C 305.545 368.776,307.255 368.776,308.300 368.694 C 309.345 368.612,308.490 368.544,306.400 368.544 C 304.310 368.544,303.455 368.612,304.500 368.694 " stroke="none" fill="#746404" fill-rule="evenodd"></path><path id="path4" d="M303.505 181.483 C 304.002 181.579,304.722 181.575,305.105 181.475 C 305.487 181.375,305.080 181.296,304.200 181.301 C 303.320 181.305,303.007 181.387,303.505 181.483 M262.778 197.100 L 261.400 198.600 262.900 197.222 C 264.296 195.938,264.584 195.600,264.278 195.600 C 264.212 195.600,263.537 196.275,262.778 197.100 M346.000 196.125 C 346.000 196.194,346.585 196.779,347.300 197.425 L 348.600 198.600 347.425 197.300 C 346.330 196.088,346.000 195.816,346.000 196.125 M249.293 228.400 C 249.293 229.170,249.375 229.485,249.476 229.100 C 249.576 228.715,249.576 228.085,249.476 227.700 C 249.375 227.315,249.293 227.630,249.293 228.400 M286.524 230.600 C 286.526 231.920,286.601 232.412,286.690 231.693 C 286.779 230.974,286.777 229.894,286.686 229.293 C 286.595 228.692,286.522 229.280,286.524 230.600 M249.309 233.600 C 249.309 234.590,249.387 234.995,249.482 234.500 C 249.578 234.005,249.578 233.195,249.482 232.700 C 249.387 232.205,249.309 232.610,249.309 233.600 M180.101 313.800 C 180.105 314.680,180.187 314.993,180.283 314.495 C 180.379 313.998,180.375 313.278,180.275 312.895 C 180.175 312.513,180.096 312.920,180.101 313.800 M217.693 316.400 C 217.693 317.170,217.775 317.485,217.876 317.100 C 217.976 316.715,217.976 316.085,217.876 315.700 C 217.775 315.315,217.693 315.630,217.693 316.400 M277.200 323.800 C 278.395 325.010,279.463 326.000,279.573 326.000 C 279.683 326.000,278.795 325.010,277.600 323.800 C 276.405 322.590,275.337 321.600,275.227 321.600 C 275.117 321.600,276.005 322.590,277.200 323.800 M202.981 354.100 L 201.400 355.800 203.100 354.219 C 204.681 352.748,204.984 352.400,204.681 352.400 C 204.616 352.400,203.851 353.165,202.981 354.100 M157.705 368.687 C 158.314 368.779,159.214 368.777,159.705 368.682 C 160.197 368.587,159.700 368.511,158.600 368.514 C 157.500 368.517,157.097 368.595,157.705 368.687 M163.900 368.682 C 164.395 368.778,165.205 368.778,165.700 368.682 C 166.195 368.587,165.790 368.509,164.800 368.509 C 163.810 368.509,163.405 368.587,163.900 368.682 M300.705 368.683 C 301.202 368.779,301.922 368.775,302.305 368.675 C 302.687 368.575,302.280 368.496,301.400 368.501 C 300.520 368.505,300.207 368.587,300.705 368.683 M310.700 368.682 C 311.195 368.778,312.005 368.778,312.500 368.682 C 312.995 368.587,312.590 368.509,311.600 368.509 C 310.610 368.509,310.205 368.587,310.700 368.682 " stroke="none" fill="#7c6c04" fill-rule="evenodd"></path></g></svg>